<svg xmlns="http://www.w3.org/2000/svg" width="29" height="25" viewBox="0 0 29 25">
    <g fill="none" fill-rule="nonzero">
        <path fill="#FFF" d="M9.247.155H.934C.17.155-.143.675.24 1.32l.64 1.07 1.07 1.8.736 1.207.348.594.695 1.176.347.597.866 1.452.875 1.452 2.867 4.805.775 1.297.779 1.308.375.627.768 1.291.43.72.647 1.084.984 1.666.295.493c.379.637 1.008.637 1.39 0l.292-.483.99-1.676.646-1.06.431-.717.793-1.278.347-.603.775-1.288.775-1.29.43-.718 1.06-1.764 1.071-1.777.428-.71.868-1.446.869-1.448.348-.57.694-1.174.348-.587.726-1.203 1.078-1.791.639-1.06c.382-.637.07-1.16-.695-1.16h-8.562l-.167.272-.411.702-.94 1.485-.51.834-.767 1.232-1.173 1.95-.346.56c-.454.741-1.2.741-1.648 0l-.35-.572-1.166-1.938-.766-1.259-.51-.838-.911-1.5-.445-.73-.12-.198z"/>
        <path fill="#202736" d="M14.486 6.868c-1.264 0-2.29.99-2.29 2.21s1.026 2.21 2.29 2.21c1.265 0 2.29-.99 2.29-2.21-.001-1.22-1.026-2.208-2.29-2.21zm0 3.417c-.688 0-1.246-.539-1.247-1.203 0-.664.557-1.203 1.245-1.205.689-.001 1.248.536 1.25 1.2 0 .666-.558 1.206-1.248 1.208z"/>
        <path fill="#202736" d="M14.486 3.438c-2.36 0-4.488 1.373-5.39 3.478-.903 2.104-.402 4.527 1.269 6.136 1.67 1.61 4.182 2.088 6.361 1.214 2.18-.875 3.6-2.93 3.595-5.208-.01-3.104-2.618-5.616-5.835-5.62zm0 10.253c-2.645 0-4.79-2.068-4.791-4.62-.002-2.552 2.14-4.623 4.785-4.627 2.645-.004 4.793 2.061 4.798 4.614a4.546 4.546 0 0 1-1.4 3.275 4.885 4.885 0 0 1-3.392 1.358z" opacity=".8"/>
        <path fill="#202736" d="M16.182.155a9.6 9.6 0 0 0-3.391 0C8.34.946 5.108 4.69 5.108 9.058v.449l4.277 7.132a9.639 9.639 0 0 0 10.078.07l1.824-3.038c-2.378 3.242-6.85 4.325-10.533 2.551-3.682-1.774-5.473-5.874-4.216-9.656C7.794 2.785 11.72.452 15.786 1.074c4.065.622 7.052 4.012 7.033 7.984a7.689 7.689 0 0 1-.792 3.413l1.825-3.018v-.382c.007-4.368-3.219-8.118-7.67-8.916z" opacity=".5"/>
        <path fill="#202736" d="M14.486 20.501a12.199 12.199 0 0 1-3.03-.379l.695 1.184c.766.133 1.543.2 2.322.201.742 0 1.482-.061 2.213-.184l.695-1.174c-.946.233-1.918.352-2.895.352zM2.324 4.823l.695 1.153v.03A11.44 11.44 0 0 1 6.991.156H5.434a12.446 12.446 0 0 0-3.106 4.667h-.004zM23.54.155h-1.57a11.445 11.445 0 0 1 3.96 5.818v-.024l.696-1.15A12.468 12.468 0 0 0 23.539.155z" opacity=".3"/>
    </g>
</svg>
